<svg width="42" height="42" viewBox="0 0 42 42" fill="none" xmlns="http://www.w3.org/2000/svg">
<path d="M33.5077 14.6764L33.4511 20.9262M33.4511 20.9262L33.3946 27.1759M33.4511 20.9262L39.7009 20.9827M33.4511 20.9262L27.2014 20.8696M23.1291 10.4157C23.0875 15.0178 19.3229 18.7149 14.7208 18.6733C10.1186 18.6316 6.42152 14.867 6.46317 10.2649C6.50481 5.66267 10.2694 1.96562 14.8716 2.00727C19.4737 2.04891 23.1708 5.81348 23.1291 10.4157ZM2.05161 37.3094C2.11408 30.4061 7.76093 24.8605 14.6642 24.923C21.5675 24.9855 27.1131 30.6323 27.0506 37.5356L27.0317 39.6188L2.03276 39.3926L2.05161 37.3094Z" stroke="url(#paint0_linear_402_36)" stroke-width="3" stroke-linecap="round" stroke-linejoin="round"/>
<defs>
<linearGradient id="paint0_linear_402_36" x1="35.6459" y1="20.946" x2="2.20242" y2="20.6434" gradientUnits="userSpaceOnUse">
<stop stop-color="#F9B53A"/>
<stop offset="1" stop-color="#FF59A8"/>
</linearGradient>
</defs>
</svg>
